<mxfile host="app.diagrams.net" modified="2023-02-18T04:40:04.085Z" agent="5.0 (Windows)" etag="k9EOk15wbUQBguhOi0C1" version="20.8.20" type="github">
  <diagram name="Page-1" id="_HGQBxp-zxc5xhW-jHlp">
    <mxGraphModel dx="2390" dy="1257" grid="1" gridSize="10" guides="1" tooltips="1" connect="1" arrows="1" fold="1" page="1" pageScale="1" pageWidth="1169" pageHeight="827" math="0" shadow="0">
      <root>
        <mxCell id="0" />
        <mxCell id="1" parent="0" />
        <mxCell id="NYE9seQgFOBxGJMTWFas-3" value="grades" style="shape=table;startSize=30;container=1;collapsible=1;childLayout=tableLayout;fixedRows=1;rowLines=0;fontStyle=1;align=center;resizeLast=1;rounded=0;labelBackgroundColor=none;" parent="1" vertex="1">
          <mxGeometry x="90" y="106" width="180" height="180" as="geometry" />
        </mxCell>
        <mxCell id="NYE9seQgFOBxGJMTWFas-4" value="" style="shape=tableRow;horizontal=0;startSize=0;swimlaneHead=0;swimlaneBody=0;fillColor=none;collapsible=0;dropTarget=0;points=[[0,0.5],[1,0.5]];portConstraint=eastwest;top=0;left=0;right=0;bottom=1;rounded=0;labelBackgroundColor=none;" parent="NYE9seQgFOBxGJMTWFas-3" vertex="1">
          <mxGeometry y="30" width="180" height="30" as="geometry" />
        </mxCell>
        <mxCell id="NYE9seQgFOBxGJMTWFas-5" value="PK" style="shape=partialRectangle;connectable=0;fillColor=none;top=0;left=0;bottom=0;right=0;fontStyle=1;overflow=hidden;rounded=0;labelBackgroundColor=none;" parent="NYE9seQgFOBxGJMTWFas-4" vertex="1">
          <mxGeometry width="30" height="30" as="geometry">
            <mxRectangle width="30" height="30" as="alternateBounds" />
          </mxGeometry>
        </mxCell>
        <mxCell id="NYE9seQgFOBxGJMTWFas-6" value="id" style="shape=partialRectangle;connectable=0;fillColor=none;top=0;left=0;bottom=0;right=0;align=left;spacingLeft=6;fontStyle=5;overflow=hidden;rounded=0;labelBackgroundColor=none;" parent="NYE9seQgFOBxGJMTWFas-4" vertex="1">
          <mxGeometry x="30" width="150" height="30" as="geometry">
            <mxRectangle width="150" height="30" as="alternateBounds" />
          </mxGeometry>
        </mxCell>
        <mxCell id="NYE9seQgFOBxGJMTWFas-71" value="" style="shape=tableRow;horizontal=0;startSize=0;swimlaneHead=0;swimlaneBody=0;fillColor=none;collapsible=0;dropTarget=0;points=[[0,0.5],[1,0.5]];portConstraint=eastwest;top=0;left=0;right=0;bottom=0;rounded=0;labelBackgroundColor=none;" parent="NYE9seQgFOBxGJMTWFas-3" vertex="1">
          <mxGeometry y="60" width="180" height="30" as="geometry" />
        </mxCell>
        <mxCell id="NYE9seQgFOBxGJMTWFas-72" value="FK" style="shape=partialRectangle;connectable=0;fillColor=none;top=0;left=0;bottom=0;right=0;fontStyle=0;overflow=hidden;rounded=0;labelBackgroundColor=none;" parent="NYE9seQgFOBxGJMTWFas-71" vertex="1">
          <mxGeometry width="30" height="30" as="geometry">
            <mxRectangle width="30" height="30" as="alternateBounds" />
          </mxGeometry>
        </mxCell>
        <mxCell id="NYE9seQgFOBxGJMTWFas-73" value="id_student" style="shape=partialRectangle;connectable=0;fillColor=none;top=0;left=0;bottom=0;right=0;align=left;spacingLeft=6;fontStyle=0;overflow=hidden;rounded=0;labelBackgroundColor=none;" parent="NYE9seQgFOBxGJMTWFas-71" vertex="1">
          <mxGeometry x="30" width="150" height="30" as="geometry">
            <mxRectangle width="150" height="30" as="alternateBounds" />
          </mxGeometry>
        </mxCell>
        <mxCell id="NYE9seQgFOBxGJMTWFas-326" value="" style="shape=tableRow;horizontal=0;startSize=0;swimlaneHead=0;swimlaneBody=0;fillColor=none;collapsible=0;dropTarget=0;points=[[0,0.5],[1,0.5]];portConstraint=eastwest;top=0;left=0;right=0;bottom=0;rounded=0;labelBackgroundColor=none;" parent="NYE9seQgFOBxGJMTWFas-3" vertex="1">
          <mxGeometry y="90" width="180" height="30" as="geometry" />
        </mxCell>
        <mxCell id="NYE9seQgFOBxGJMTWFas-327" value="FK" style="shape=partialRectangle;connectable=0;fillColor=none;top=0;left=0;bottom=0;right=0;fontStyle=0;overflow=hidden;rounded=0;labelBackgroundColor=none;" parent="NYE9seQgFOBxGJMTWFas-326" vertex="1">
          <mxGeometry width="30" height="30" as="geometry">
            <mxRectangle width="30" height="30" as="alternateBounds" />
          </mxGeometry>
        </mxCell>
        <mxCell id="NYE9seQgFOBxGJMTWFas-328" value="id_subject" style="shape=partialRectangle;connectable=0;fillColor=none;top=0;left=0;bottom=0;right=0;align=left;spacingLeft=6;fontStyle=0;overflow=hidden;rounded=0;labelBackgroundColor=none;" parent="NYE9seQgFOBxGJMTWFas-326" vertex="1">
          <mxGeometry x="30" width="150" height="30" as="geometry">
            <mxRectangle width="150" height="30" as="alternateBounds" />
          </mxGeometry>
        </mxCell>
        <mxCell id="NYE9seQgFOBxGJMTWFas-7" value="" style="shape=tableRow;horizontal=0;startSize=0;swimlaneHead=0;swimlaneBody=0;fillColor=none;collapsible=0;dropTarget=0;points=[[0,0.5],[1,0.5]];portConstraint=eastwest;top=0;left=0;right=0;bottom=0;rounded=0;labelBackgroundColor=none;" parent="NYE9seQgFOBxGJMTWFas-3" vertex="1">
          <mxGeometry y="120" width="180" height="30" as="geometry" />
        </mxCell>
        <mxCell id="NYE9seQgFOBxGJMTWFas-8" value="" style="shape=partialRectangle;connectable=0;fillColor=none;top=0;left=0;bottom=0;right=0;editable=1;overflow=hidden;rounded=0;labelBackgroundColor=none;" parent="NYE9seQgFOBxGJMTWFas-7" vertex="1">
          <mxGeometry width="30" height="30" as="geometry">
            <mxRectangle width="30" height="30" as="alternateBounds" />
          </mxGeometry>
        </mxCell>
        <mxCell id="NYE9seQgFOBxGJMTWFas-9" value="grade" style="shape=partialRectangle;connectable=0;fillColor=none;top=0;left=0;bottom=0;right=0;align=left;spacingLeft=6;overflow=hidden;rounded=0;labelBackgroundColor=none;" parent="NYE9seQgFOBxGJMTWFas-7" vertex="1">
          <mxGeometry x="30" width="150" height="30" as="geometry">
            <mxRectangle width="150" height="30" as="alternateBounds" />
          </mxGeometry>
        </mxCell>
        <mxCell id="NYE9seQgFOBxGJMTWFas-13" value="" style="shape=tableRow;horizontal=0;startSize=0;swimlaneHead=0;swimlaneBody=0;fillColor=none;collapsible=0;dropTarget=0;points=[[0,0.5],[1,0.5]];portConstraint=eastwest;top=0;left=0;right=0;bottom=0;rounded=0;labelBackgroundColor=none;" parent="NYE9seQgFOBxGJMTWFas-3" vertex="1">
          <mxGeometry y="150" width="180" height="30" as="geometry" />
        </mxCell>
        <mxCell id="NYE9seQgFOBxGJMTWFas-14" value="" style="shape=partialRectangle;connectable=0;fillColor=none;top=0;left=0;bottom=0;right=0;editable=1;overflow=hidden;rounded=0;labelBackgroundColor=none;" parent="NYE9seQgFOBxGJMTWFas-13" vertex="1">
          <mxGeometry width="30" height="30" as="geometry">
            <mxRectangle width="30" height="30" as="alternateBounds" />
          </mxGeometry>
        </mxCell>
        <mxCell id="NYE9seQgFOBxGJMTWFas-15" value="date_of_issue" style="shape=partialRectangle;connectable=0;fillColor=none;top=0;left=0;bottom=0;right=0;align=left;spacingLeft=6;overflow=hidden;rounded=0;labelBackgroundColor=none;" parent="NYE9seQgFOBxGJMTWFas-13" vertex="1">
          <mxGeometry x="30" width="150" height="30" as="geometry">
            <mxRectangle width="150" height="30" as="alternateBounds" />
          </mxGeometry>
        </mxCell>
        <mxCell id="NYE9seQgFOBxGJMTWFas-29" value="classes" style="shape=table;startSize=30;container=1;collapsible=1;childLayout=tableLayout;fixedRows=1;rowLines=0;fontStyle=1;align=center;resizeLast=1;rounded=0;labelBackgroundColor=none;" parent="1" vertex="1">
          <mxGeometry x="330" y="251" width="180" height="175" as="geometry" />
        </mxCell>
        <mxCell id="NYE9seQgFOBxGJMTWFas-30" value="" style="shape=tableRow;horizontal=0;startSize=0;swimlaneHead=0;swimlaneBody=0;fillColor=none;collapsible=0;dropTarget=0;points=[[0,0.5],[1,0.5]];portConstraint=eastwest;top=0;left=0;right=0;bottom=1;rounded=0;labelBackgroundColor=none;" parent="NYE9seQgFOBxGJMTWFas-29" vertex="1">
          <mxGeometry y="30" width="180" height="55" as="geometry" />
        </mxCell>
        <mxCell id="NYE9seQgFOBxGJMTWFas-31" value="PK" style="shape=partialRectangle;connectable=0;fillColor=none;top=0;left=0;bottom=0;right=0;fontStyle=1;overflow=hidden;rounded=0;labelBackgroundColor=none;" parent="NYE9seQgFOBxGJMTWFas-30" vertex="1">
          <mxGeometry width="30" height="55" as="geometry">
            <mxRectangle width="30" height="55" as="alternateBounds" />
          </mxGeometry>
        </mxCell>
        <mxCell id="NYE9seQgFOBxGJMTWFas-32" value="id" style="shape=partialRectangle;connectable=0;fillColor=none;top=0;left=0;bottom=0;right=0;align=left;spacingLeft=6;fontStyle=5;overflow=hidden;rounded=0;labelBackgroundColor=none;" parent="NYE9seQgFOBxGJMTWFas-30" vertex="1">
          <mxGeometry x="30" width="150" height="55" as="geometry">
            <mxRectangle width="150" height="55" as="alternateBounds" />
          </mxGeometry>
        </mxCell>
        <mxCell id="NYE9seQgFOBxGJMTWFas-81" value="" style="shape=tableRow;horizontal=0;startSize=0;swimlaneHead=0;swimlaneBody=0;fillColor=none;collapsible=0;dropTarget=0;points=[[0,0.5],[1,0.5]];portConstraint=eastwest;top=0;left=0;right=0;bottom=0;rounded=0;labelBackgroundColor=none;" parent="NYE9seQgFOBxGJMTWFas-29" vertex="1">
          <mxGeometry y="85" width="180" height="30" as="geometry" />
        </mxCell>
        <mxCell id="NYE9seQgFOBxGJMTWFas-82" value="FK" style="shape=partialRectangle;connectable=0;fillColor=none;top=0;left=0;bottom=0;right=0;editable=1;overflow=hidden;rounded=0;labelBackgroundColor=none;" parent="NYE9seQgFOBxGJMTWFas-81" vertex="1">
          <mxGeometry width="30" height="30" as="geometry">
            <mxRectangle width="30" height="30" as="alternateBounds" />
          </mxGeometry>
        </mxCell>
        <mxCell id="NYE9seQgFOBxGJMTWFas-83" value="id_tutor" style="shape=partialRectangle;connectable=0;fillColor=none;top=0;left=0;bottom=0;right=0;align=left;spacingLeft=6;overflow=hidden;rounded=0;labelBackgroundColor=none;" parent="NYE9seQgFOBxGJMTWFas-81" vertex="1">
          <mxGeometry x="30" width="150" height="30" as="geometry">
            <mxRectangle width="150" height="30" as="alternateBounds" />
          </mxGeometry>
        </mxCell>
        <mxCell id="1BFZD8_NQaoCYZB0v_Hj-1" value="" style="shape=tableRow;horizontal=0;startSize=0;swimlaneHead=0;swimlaneBody=0;fillColor=none;collapsible=0;dropTarget=0;points=[[0,0.5],[1,0.5]];portConstraint=eastwest;top=0;left=0;right=0;bottom=0;" parent="NYE9seQgFOBxGJMTWFas-29" vertex="1">
          <mxGeometry y="115" width="180" height="30" as="geometry" />
        </mxCell>
        <mxCell id="1BFZD8_NQaoCYZB0v_Hj-2" value="FK" style="shape=partialRectangle;connectable=0;fillColor=none;top=0;left=0;bottom=0;right=0;fontStyle=0;overflow=hidden;" parent="1BFZD8_NQaoCYZB0v_Hj-1" vertex="1">
          <mxGeometry width="30" height="30" as="geometry">
            <mxRectangle width="30" height="30" as="alternateBounds" />
          </mxGeometry>
        </mxCell>
        <mxCell id="1BFZD8_NQaoCYZB0v_Hj-3" value="id_school" style="shape=partialRectangle;connectable=0;fillColor=none;top=0;left=0;bottom=0;right=0;align=left;spacingLeft=6;fontStyle=0;overflow=hidden;" parent="1BFZD8_NQaoCYZB0v_Hj-1" vertex="1">
          <mxGeometry x="30" width="150" height="30" as="geometry">
            <mxRectangle width="150" height="30" as="alternateBounds" />
          </mxGeometry>
        </mxCell>
        <mxCell id="NYE9seQgFOBxGJMTWFas-36" value="" style="shape=tableRow;horizontal=0;startSize=0;swimlaneHead=0;swimlaneBody=0;fillColor=none;collapsible=0;dropTarget=0;points=[[0,0.5],[1,0.5]];portConstraint=eastwest;top=0;left=0;right=0;bottom=0;rounded=0;labelBackgroundColor=none;" parent="NYE9seQgFOBxGJMTWFas-29" vertex="1">
          <mxGeometry y="145" width="180" height="30" as="geometry" />
        </mxCell>
        <mxCell id="NYE9seQgFOBxGJMTWFas-37" value="" style="shape=partialRectangle;connectable=0;fillColor=none;top=0;left=0;bottom=0;right=0;editable=1;overflow=hidden;rounded=0;labelBackgroundColor=none;" parent="NYE9seQgFOBxGJMTWFas-36" vertex="1">
          <mxGeometry width="30" height="30" as="geometry">
            <mxRectangle width="30" height="30" as="alternateBounds" />
          </mxGeometry>
        </mxCell>
        <mxCell id="NYE9seQgFOBxGJMTWFas-38" value="name" style="shape=partialRectangle;connectable=0;fillColor=none;top=0;left=0;bottom=0;right=0;align=left;spacingLeft=6;overflow=hidden;rounded=0;labelBackgroundColor=none;" parent="NYE9seQgFOBxGJMTWFas-36" vertex="1">
          <mxGeometry x="30" width="150" height="30" as="geometry">
            <mxRectangle width="150" height="30" as="alternateBounds" />
          </mxGeometry>
        </mxCell>
        <mxCell id="NYE9seQgFOBxGJMTWFas-93" value="schools" style="shape=table;startSize=30;container=1;collapsible=1;childLayout=tableLayout;fixedRows=1;rowLines=0;fontStyle=1;align=center;resizeLast=1;rounded=0;labelBackgroundColor=none;" parent="1" vertex="1">
          <mxGeometry x="680" y="601" width="180" height="120" as="geometry" />
        </mxCell>
        <mxCell id="NYE9seQgFOBxGJMTWFas-94" value="" style="shape=tableRow;horizontal=0;startSize=0;swimlaneHead=0;swimlaneBody=0;fillColor=none;collapsible=0;dropTarget=0;points=[[0,0.5],[1,0.5]];portConstraint=eastwest;top=0;left=0;right=0;bottom=1;rounded=0;labelBackgroundColor=none;" parent="NYE9seQgFOBxGJMTWFas-93" vertex="1">
          <mxGeometry y="30" width="180" height="30" as="geometry" />
        </mxCell>
        <mxCell id="NYE9seQgFOBxGJMTWFas-95" value="PK" style="shape=partialRectangle;connectable=0;fillColor=none;top=0;left=0;bottom=0;right=0;fontStyle=1;overflow=hidden;rounded=0;labelBackgroundColor=none;" parent="NYE9seQgFOBxGJMTWFas-94" vertex="1">
          <mxGeometry width="30" height="30" as="geometry">
            <mxRectangle width="30" height="30" as="alternateBounds" />
          </mxGeometry>
        </mxCell>
        <mxCell id="NYE9seQgFOBxGJMTWFas-96" value="id" style="shape=partialRectangle;connectable=0;fillColor=none;top=0;left=0;bottom=0;right=0;align=left;spacingLeft=6;fontStyle=5;overflow=hidden;rounded=0;labelBackgroundColor=none;" parent="NYE9seQgFOBxGJMTWFas-94" vertex="1">
          <mxGeometry x="30" width="150" height="30" as="geometry">
            <mxRectangle width="150" height="30" as="alternateBounds" />
          </mxGeometry>
        </mxCell>
        <mxCell id="NYE9seQgFOBxGJMTWFas-103" value="" style="shape=tableRow;horizontal=0;startSize=0;swimlaneHead=0;swimlaneBody=0;fillColor=none;collapsible=0;dropTarget=0;points=[[0,0.5],[1,0.5]];portConstraint=eastwest;top=0;left=0;right=0;bottom=0;rounded=0;labelBackgroundColor=none;" parent="NYE9seQgFOBxGJMTWFas-93" vertex="1">
          <mxGeometry y="60" width="180" height="30" as="geometry" />
        </mxCell>
        <mxCell id="NYE9seQgFOBxGJMTWFas-104" value="" style="shape=partialRectangle;connectable=0;fillColor=none;top=0;left=0;bottom=0;right=0;editable=1;overflow=hidden;rounded=0;labelBackgroundColor=none;" parent="NYE9seQgFOBxGJMTWFas-103" vertex="1">
          <mxGeometry width="30" height="30" as="geometry">
            <mxRectangle width="30" height="30" as="alternateBounds" />
          </mxGeometry>
        </mxCell>
        <mxCell id="NYE9seQgFOBxGJMTWFas-105" value="address" style="shape=partialRectangle;connectable=0;fillColor=none;top=0;left=0;bottom=0;right=0;align=left;spacingLeft=6;overflow=hidden;rounded=0;labelBackgroundColor=none;" parent="NYE9seQgFOBxGJMTWFas-103" vertex="1">
          <mxGeometry x="30" width="150" height="30" as="geometry">
            <mxRectangle width="150" height="30" as="alternateBounds" />
          </mxGeometry>
        </mxCell>
        <mxCell id="NYE9seQgFOBxGJMTWFas-107" value="" style="shape=tableRow;horizontal=0;startSize=0;swimlaneHead=0;swimlaneBody=0;fillColor=none;collapsible=0;dropTarget=0;points=[[0,0.5],[1,0.5]];portConstraint=eastwest;top=0;left=0;right=0;bottom=0;rounded=0;labelBackgroundColor=none;" parent="NYE9seQgFOBxGJMTWFas-93" vertex="1">
          <mxGeometry y="90" width="180" height="30" as="geometry" />
        </mxCell>
        <mxCell id="NYE9seQgFOBxGJMTWFas-108" value="" style="shape=partialRectangle;connectable=0;fillColor=none;top=0;left=0;bottom=0;right=0;editable=1;overflow=hidden;rounded=0;labelBackgroundColor=none;" parent="NYE9seQgFOBxGJMTWFas-107" vertex="1">
          <mxGeometry width="30" height="30" as="geometry">
            <mxRectangle width="30" height="30" as="alternateBounds" />
          </mxGeometry>
        </mxCell>
        <mxCell id="NYE9seQgFOBxGJMTWFas-109" value="name" style="shape=partialRectangle;connectable=0;fillColor=none;top=0;left=0;bottom=0;right=0;align=left;spacingLeft=6;overflow=hidden;rounded=0;labelBackgroundColor=none;" parent="NYE9seQgFOBxGJMTWFas-107" vertex="1">
          <mxGeometry x="30" width="150" height="30" as="geometry">
            <mxRectangle width="150" height="30" as="alternateBounds" />
          </mxGeometry>
        </mxCell>
        <mxCell id="NYE9seQgFOBxGJMTWFas-114" value="subjects" style="shape=table;startSize=30;container=1;collapsible=1;childLayout=tableLayout;fixedRows=1;rowLines=0;fontStyle=1;align=center;resizeLast=1;rounded=0;labelBackgroundColor=none;" parent="1" vertex="1">
          <mxGeometry x="330" y="561" width="180" height="150" as="geometry" />
        </mxCell>
        <mxCell id="NYE9seQgFOBxGJMTWFas-115" value="" style="shape=tableRow;horizontal=0;startSize=0;swimlaneHead=0;swimlaneBody=0;fillColor=none;collapsible=0;dropTarget=0;points=[[0,0.5],[1,0.5]];portConstraint=eastwest;top=0;left=0;right=0;bottom=1;rounded=0;labelBackgroundColor=none;" parent="NYE9seQgFOBxGJMTWFas-114" vertex="1">
          <mxGeometry y="30" width="180" height="30" as="geometry" />
        </mxCell>
        <mxCell id="NYE9seQgFOBxGJMTWFas-116" value="PK" style="shape=partialRectangle;connectable=0;fillColor=none;top=0;left=0;bottom=0;right=0;fontStyle=1;overflow=hidden;rounded=0;labelBackgroundColor=none;" parent="NYE9seQgFOBxGJMTWFas-115" vertex="1">
          <mxGeometry width="30" height="30" as="geometry">
            <mxRectangle width="30" height="30" as="alternateBounds" />
          </mxGeometry>
        </mxCell>
        <mxCell id="NYE9seQgFOBxGJMTWFas-117" value="id" style="shape=partialRectangle;connectable=0;fillColor=none;top=0;left=0;bottom=0;right=0;align=left;spacingLeft=6;fontStyle=5;overflow=hidden;rounded=0;labelBackgroundColor=none;" parent="NYE9seQgFOBxGJMTWFas-115" vertex="1">
          <mxGeometry x="30" width="150" height="30" as="geometry">
            <mxRectangle width="150" height="30" as="alternateBounds" />
          </mxGeometry>
        </mxCell>
        <mxCell id="NYE9seQgFOBxGJMTWFas-329" value="" style="shape=tableRow;horizontal=0;startSize=0;swimlaneHead=0;swimlaneBody=0;fillColor=none;collapsible=0;dropTarget=0;points=[[0,0.5],[1,0.5]];portConstraint=eastwest;top=0;left=0;right=0;bottom=0;rounded=0;labelBackgroundColor=none;" parent="NYE9seQgFOBxGJMTWFas-114" vertex="1">
          <mxGeometry y="60" width="180" height="30" as="geometry" />
        </mxCell>
        <mxCell id="NYE9seQgFOBxGJMTWFas-330" value="FK" style="shape=partialRectangle;connectable=0;fillColor=none;top=0;left=0;bottom=0;right=0;fontStyle=0;overflow=hidden;rounded=0;labelBackgroundColor=none;" parent="NYE9seQgFOBxGJMTWFas-329" vertex="1">
          <mxGeometry width="30" height="30" as="geometry">
            <mxRectangle width="30" height="30" as="alternateBounds" />
          </mxGeometry>
        </mxCell>
        <mxCell id="NYE9seQgFOBxGJMTWFas-331" value="id_class" style="shape=partialRectangle;connectable=0;fillColor=none;top=0;left=0;bottom=0;right=0;align=left;spacingLeft=6;fontStyle=0;overflow=hidden;rounded=0;labelBackgroundColor=none;" parent="NYE9seQgFOBxGJMTWFas-329" vertex="1">
          <mxGeometry x="30" width="150" height="30" as="geometry">
            <mxRectangle width="150" height="30" as="alternateBounds" />
          </mxGeometry>
        </mxCell>
        <mxCell id="xnJxR2Mf4vkhum-jP50F-24" value="" style="shape=tableRow;horizontal=0;startSize=0;swimlaneHead=0;swimlaneBody=0;fillColor=none;collapsible=0;dropTarget=0;points=[[0,0.5],[1,0.5]];portConstraint=eastwest;top=0;left=0;right=0;bottom=0;rounded=0;labelBackgroundColor=none;" parent="NYE9seQgFOBxGJMTWFas-114" vertex="1">
          <mxGeometry y="90" width="180" height="30" as="geometry" />
        </mxCell>
        <mxCell id="xnJxR2Mf4vkhum-jP50F-25" value="FK" style="shape=partialRectangle;connectable=0;fillColor=none;top=0;left=0;bottom=0;right=0;fontStyle=0;overflow=hidden;rounded=0;labelBackgroundColor=none;" parent="xnJxR2Mf4vkhum-jP50F-24" vertex="1">
          <mxGeometry width="30" height="30" as="geometry">
            <mxRectangle width="30" height="30" as="alternateBounds" />
          </mxGeometry>
        </mxCell>
        <mxCell id="xnJxR2Mf4vkhum-jP50F-26" value="id_teacher" style="shape=partialRectangle;connectable=0;fillColor=none;top=0;left=0;bottom=0;right=0;align=left;spacingLeft=6;fontStyle=0;overflow=hidden;rounded=0;labelBackgroundColor=none;" parent="xnJxR2Mf4vkhum-jP50F-24" vertex="1">
          <mxGeometry x="30" width="150" height="30" as="geometry">
            <mxRectangle width="150" height="30" as="alternateBounds" />
          </mxGeometry>
        </mxCell>
        <mxCell id="NYE9seQgFOBxGJMTWFas-118" value="" style="shape=tableRow;horizontal=0;startSize=0;swimlaneHead=0;swimlaneBody=0;fillColor=none;collapsible=0;dropTarget=0;points=[[0,0.5],[1,0.5]];portConstraint=eastwest;top=0;left=0;right=0;bottom=0;rounded=0;labelBackgroundColor=none;" parent="NYE9seQgFOBxGJMTWFas-114" vertex="1">
          <mxGeometry y="120" width="180" height="30" as="geometry" />
        </mxCell>
        <mxCell id="NYE9seQgFOBxGJMTWFas-119" value="" style="shape=partialRectangle;connectable=0;fillColor=none;top=0;left=0;bottom=0;right=0;editable=1;overflow=hidden;rounded=0;labelBackgroundColor=none;" parent="NYE9seQgFOBxGJMTWFas-118" vertex="1">
          <mxGeometry width="30" height="30" as="geometry">
            <mxRectangle width="30" height="30" as="alternateBounds" />
          </mxGeometry>
        </mxCell>
        <mxCell id="NYE9seQgFOBxGJMTWFas-120" value="name" style="shape=partialRectangle;connectable=0;fillColor=none;top=0;left=0;bottom=0;right=0;align=left;spacingLeft=6;overflow=hidden;rounded=0;labelBackgroundColor=none;" parent="NYE9seQgFOBxGJMTWFas-118" vertex="1">
          <mxGeometry x="30" width="150" height="30" as="geometry">
            <mxRectangle width="150" height="30" as="alternateBounds" />
          </mxGeometry>
        </mxCell>
        <mxCell id="NYE9seQgFOBxGJMTWFas-265" value="roles" style="shape=table;startSize=30;container=1;collapsible=1;childLayout=tableLayout;fixedRows=1;rowLines=0;fontStyle=1;align=center;resizeLast=1;rounded=0;labelBackgroundColor=none;" parent="1" vertex="1">
          <mxGeometry x="680" y="501" width="180" height="90" as="geometry" />
        </mxCell>
        <mxCell id="NYE9seQgFOBxGJMTWFas-266" value="" style="shape=tableRow;horizontal=0;startSize=0;swimlaneHead=0;swimlaneBody=0;fillColor=none;collapsible=0;dropTarget=0;points=[[0,0.5],[1,0.5]];portConstraint=eastwest;top=0;left=0;right=0;bottom=1;rounded=0;labelBackgroundColor=none;" parent="NYE9seQgFOBxGJMTWFas-265" vertex="1">
          <mxGeometry y="30" width="180" height="30" as="geometry" />
        </mxCell>
        <mxCell id="NYE9seQgFOBxGJMTWFas-267" value="PK" style="shape=partialRectangle;connectable=0;fillColor=none;top=0;left=0;bottom=0;right=0;fontStyle=1;overflow=hidden;rounded=0;labelBackgroundColor=none;" parent="NYE9seQgFOBxGJMTWFas-266" vertex="1">
          <mxGeometry width="30" height="30" as="geometry">
            <mxRectangle width="30" height="30" as="alternateBounds" />
          </mxGeometry>
        </mxCell>
        <mxCell id="NYE9seQgFOBxGJMTWFas-268" value="id" style="shape=partialRectangle;connectable=0;fillColor=none;top=0;left=0;bottom=0;right=0;align=left;spacingLeft=6;fontStyle=5;overflow=hidden;rounded=0;labelBackgroundColor=none;" parent="NYE9seQgFOBxGJMTWFas-266" vertex="1">
          <mxGeometry x="30" width="150" height="30" as="geometry">
            <mxRectangle width="150" height="30" as="alternateBounds" />
          </mxGeometry>
        </mxCell>
        <mxCell id="NYE9seQgFOBxGJMTWFas-269" value="" style="shape=tableRow;horizontal=0;startSize=0;swimlaneHead=0;swimlaneBody=0;fillColor=none;collapsible=0;dropTarget=0;points=[[0,0.5],[1,0.5]];portConstraint=eastwest;top=0;left=0;right=0;bottom=0;rounded=0;labelBackgroundColor=none;" parent="NYE9seQgFOBxGJMTWFas-265" vertex="1">
          <mxGeometry y="60" width="180" height="30" as="geometry" />
        </mxCell>
        <mxCell id="NYE9seQgFOBxGJMTWFas-270" value="" style="shape=partialRectangle;connectable=0;fillColor=none;top=0;left=0;bottom=0;right=0;editable=1;overflow=hidden;rounded=0;labelBackgroundColor=none;" parent="NYE9seQgFOBxGJMTWFas-269" vertex="1">
          <mxGeometry width="30" height="30" as="geometry">
            <mxRectangle width="30" height="30" as="alternateBounds" />
          </mxGeometry>
        </mxCell>
        <mxCell id="NYE9seQgFOBxGJMTWFas-271" value="role" style="shape=partialRectangle;connectable=0;fillColor=none;top=0;left=0;bottom=0;right=0;align=left;spacingLeft=6;overflow=hidden;rounded=0;labelBackgroundColor=none;" parent="NYE9seQgFOBxGJMTWFas-269" vertex="1">
          <mxGeometry x="30" width="150" height="30" as="geometry">
            <mxRectangle width="150" height="30" as="alternateBounds" />
          </mxGeometry>
        </mxCell>
        <mxCell id="NYE9seQgFOBxGJMTWFas-282" value="users" style="shape=table;startSize=30;container=1;collapsible=1;childLayout=tableLayout;fixedRows=1;rowLines=0;fontStyle=1;align=center;resizeLast=1;rounded=0;labelBackgroundColor=none;" parent="1" vertex="1">
          <mxGeometry x="680" y="231" width="180" height="265" as="geometry" />
        </mxCell>
        <mxCell id="NYE9seQgFOBxGJMTWFas-283" value="" style="shape=tableRow;horizontal=0;startSize=0;swimlaneHead=0;swimlaneBody=0;fillColor=none;collapsible=0;dropTarget=0;points=[[0,0.5],[1,0.5]];portConstraint=eastwest;top=0;left=0;right=0;bottom=1;rounded=0;labelBackgroundColor=none;" parent="NYE9seQgFOBxGJMTWFas-282" vertex="1">
          <mxGeometry y="30" width="180" height="85" as="geometry" />
        </mxCell>
        <mxCell id="NYE9seQgFOBxGJMTWFas-284" value="PK" style="shape=partialRectangle;connectable=0;fillColor=none;top=0;left=0;bottom=0;right=0;fontStyle=1;overflow=hidden;rounded=0;labelBackgroundColor=none;" parent="NYE9seQgFOBxGJMTWFas-283" vertex="1">
          <mxGeometry width="30" height="85" as="geometry">
            <mxRectangle width="30" height="85" as="alternateBounds" />
          </mxGeometry>
        </mxCell>
        <mxCell id="NYE9seQgFOBxGJMTWFas-285" value="id" style="shape=partialRectangle;connectable=0;fillColor=none;top=0;left=0;bottom=0;right=0;align=left;spacingLeft=6;fontStyle=5;overflow=hidden;rounded=0;labelBackgroundColor=none;" parent="NYE9seQgFOBxGJMTWFas-283" vertex="1">
          <mxGeometry x="30" width="150" height="85" as="geometry">
            <mxRectangle width="150" height="85" as="alternateBounds" />
          </mxGeometry>
        </mxCell>
        <mxCell id="NYE9seQgFOBxGJMTWFas-318" value="" style="shape=tableRow;horizontal=0;startSize=0;swimlaneHead=0;swimlaneBody=0;fillColor=none;collapsible=0;dropTarget=0;points=[[0,0.5],[1,0.5]];portConstraint=eastwest;top=0;left=0;right=0;bottom=0;rounded=0;labelBackgroundColor=none;" parent="NYE9seQgFOBxGJMTWFas-282" vertex="1">
          <mxGeometry y="115" width="180" height="30" as="geometry" />
        </mxCell>
        <mxCell id="NYE9seQgFOBxGJMTWFas-319" value="FK" style="shape=partialRectangle;connectable=0;fillColor=none;top=0;left=0;bottom=0;right=0;fontStyle=0;overflow=hidden;rounded=0;labelBackgroundColor=none;" parent="NYE9seQgFOBxGJMTWFas-318" vertex="1">
          <mxGeometry width="30" height="30" as="geometry">
            <mxRectangle width="30" height="30" as="alternateBounds" />
          </mxGeometry>
        </mxCell>
        <mxCell id="NYE9seQgFOBxGJMTWFas-320" value="id_detail" style="shape=partialRectangle;connectable=0;fillColor=none;top=0;left=0;bottom=0;right=0;align=left;spacingLeft=6;fontStyle=0;overflow=hidden;rounded=0;labelBackgroundColor=none;" parent="NYE9seQgFOBxGJMTWFas-318" vertex="1">
          <mxGeometry x="30" width="150" height="30" as="geometry">
            <mxRectangle width="150" height="30" as="alternateBounds" />
          </mxGeometry>
        </mxCell>
        <mxCell id="NYE9seQgFOBxGJMTWFas-348" value="" style="shape=tableRow;horizontal=0;startSize=0;swimlaneHead=0;swimlaneBody=0;fillColor=none;collapsible=0;dropTarget=0;points=[[0,0.5],[1,0.5]];portConstraint=eastwest;top=0;left=0;right=0;bottom=0;rounded=0;labelBackgroundColor=none;" parent="NYE9seQgFOBxGJMTWFas-282" vertex="1">
          <mxGeometry y="145" width="180" height="30" as="geometry" />
        </mxCell>
        <mxCell id="NYE9seQgFOBxGJMTWFas-349" value="FK" style="shape=partialRectangle;connectable=0;fillColor=none;top=0;left=0;bottom=0;right=0;fontStyle=0;overflow=hidden;rounded=0;labelBackgroundColor=none;" parent="NYE9seQgFOBxGJMTWFas-348" vertex="1">
          <mxGeometry width="30" height="30" as="geometry">
            <mxRectangle width="30" height="30" as="alternateBounds" />
          </mxGeometry>
        </mxCell>
        <mxCell id="NYE9seQgFOBxGJMTWFas-350" value="id_role" style="shape=partialRectangle;connectable=0;fillColor=none;top=0;left=0;bottom=0;right=0;align=left;spacingLeft=6;fontStyle=0;overflow=hidden;rounded=0;labelBackgroundColor=none;" parent="NYE9seQgFOBxGJMTWFas-348" vertex="1">
          <mxGeometry x="30" width="150" height="30" as="geometry">
            <mxRectangle width="150" height="30" as="alternateBounds" />
          </mxGeometry>
        </mxCell>
        <mxCell id="NYE9seQgFOBxGJMTWFas-312" value="" style="shape=tableRow;horizontal=0;startSize=0;swimlaneHead=0;swimlaneBody=0;fillColor=none;collapsible=0;dropTarget=0;points=[[0,0.5],[1,0.5]];portConstraint=eastwest;top=0;left=0;right=0;bottom=0;rounded=0;labelBackgroundColor=none;" parent="NYE9seQgFOBxGJMTWFas-282" vertex="1">
          <mxGeometry y="175" width="180" height="30" as="geometry" />
        </mxCell>
        <mxCell id="NYE9seQgFOBxGJMTWFas-313" value="" style="shape=partialRectangle;connectable=0;fillColor=none;top=0;left=0;bottom=0;right=0;editable=1;overflow=hidden;rounded=0;labelBackgroundColor=none;" parent="NYE9seQgFOBxGJMTWFas-312" vertex="1">
          <mxGeometry width="30" height="30" as="geometry">
            <mxRectangle width="30" height="30" as="alternateBounds" />
          </mxGeometry>
        </mxCell>
        <mxCell id="NYE9seQgFOBxGJMTWFas-314" value="pesel" style="shape=partialRectangle;connectable=0;fillColor=none;top=0;left=0;bottom=0;right=0;align=left;spacingLeft=6;overflow=hidden;rounded=0;labelBackgroundColor=none;" parent="NYE9seQgFOBxGJMTWFas-312" vertex="1">
          <mxGeometry x="30" width="150" height="30" as="geometry">
            <mxRectangle width="150" height="30" as="alternateBounds" />
          </mxGeometry>
        </mxCell>
        <mxCell id="NYE9seQgFOBxGJMTWFas-305" value="" style="shape=tableRow;horizontal=0;startSize=0;swimlaneHead=0;swimlaneBody=0;fillColor=none;collapsible=0;dropTarget=0;points=[[0,0.5],[1,0.5]];portConstraint=eastwest;top=0;left=0;right=0;bottom=0;rounded=0;labelBackgroundColor=none;" parent="NYE9seQgFOBxGJMTWFas-282" vertex="1">
          <mxGeometry y="205" width="180" height="30" as="geometry" />
        </mxCell>
        <mxCell id="NYE9seQgFOBxGJMTWFas-306" value="" style="shape=partialRectangle;connectable=0;fillColor=none;top=0;left=0;bottom=0;right=0;editable=1;overflow=hidden;rounded=0;labelBackgroundColor=none;" parent="NYE9seQgFOBxGJMTWFas-305" vertex="1">
          <mxGeometry width="30" height="30" as="geometry">
            <mxRectangle width="30" height="30" as="alternateBounds" />
          </mxGeometry>
        </mxCell>
        <mxCell id="NYE9seQgFOBxGJMTWFas-307" value="passoword" style="shape=partialRectangle;connectable=0;fillColor=none;top=0;left=0;bottom=0;right=0;align=left;spacingLeft=6;overflow=hidden;rounded=0;labelBackgroundColor=none;" parent="NYE9seQgFOBxGJMTWFas-305" vertex="1">
          <mxGeometry x="30" width="150" height="30" as="geometry">
            <mxRectangle width="150" height="30" as="alternateBounds" />
          </mxGeometry>
        </mxCell>
        <mxCell id="1BFZD8_NQaoCYZB0v_Hj-5" value="" style="shape=tableRow;horizontal=0;startSize=0;swimlaneHead=0;swimlaneBody=0;fillColor=none;collapsible=0;dropTarget=0;points=[[0,0.5],[1,0.5]];portConstraint=eastwest;top=0;left=0;right=0;bottom=0;" parent="NYE9seQgFOBxGJMTWFas-282" vertex="1">
          <mxGeometry y="235" width="180" height="30" as="geometry" />
        </mxCell>
        <mxCell id="1BFZD8_NQaoCYZB0v_Hj-6" value="" style="shape=partialRectangle;connectable=0;fillColor=none;top=0;left=0;bottom=0;right=0;editable=1;overflow=hidden;" parent="1BFZD8_NQaoCYZB0v_Hj-5" vertex="1">
          <mxGeometry width="30" height="30" as="geometry">
            <mxRectangle width="30" height="30" as="alternateBounds" />
          </mxGeometry>
        </mxCell>
        <mxCell id="1BFZD8_NQaoCYZB0v_Hj-7" value="is_logged" style="shape=partialRectangle;connectable=0;fillColor=none;top=0;left=0;bottom=0;right=0;align=left;spacingLeft=6;overflow=hidden;" parent="1BFZD8_NQaoCYZB0v_Hj-5" vertex="1">
          <mxGeometry x="30" width="150" height="30" as="geometry">
            <mxRectangle width="150" height="30" as="alternateBounds" />
          </mxGeometry>
        </mxCell>
        <mxCell id="NYE9seQgFOBxGJMTWFas-295" value="details" style="shape=table;startSize=30;container=1;collapsible=1;childLayout=tableLayout;fixedRows=1;rowLines=0;fontStyle=1;align=center;resizeLast=1;rounded=0;labelBackgroundColor=none;" parent="1" vertex="1">
          <mxGeometry x="930" y="316" width="180" height="210" as="geometry" />
        </mxCell>
        <mxCell id="NYE9seQgFOBxGJMTWFas-296" value="" style="shape=tableRow;horizontal=0;startSize=0;swimlaneHead=0;swimlaneBody=0;fillColor=none;collapsible=0;dropTarget=0;points=[[0,0.5],[1,0.5]];portConstraint=eastwest;top=0;left=0;right=0;bottom=1;rounded=0;labelBackgroundColor=none;" parent="NYE9seQgFOBxGJMTWFas-295" vertex="1">
          <mxGeometry y="30" width="180" height="30" as="geometry" />
        </mxCell>
        <mxCell id="NYE9seQgFOBxGJMTWFas-297" value="PK" style="shape=partialRectangle;connectable=0;fillColor=none;top=0;left=0;bottom=0;right=0;fontStyle=1;overflow=hidden;rounded=0;labelBackgroundColor=none;" parent="NYE9seQgFOBxGJMTWFas-296" vertex="1">
          <mxGeometry width="30" height="30" as="geometry">
            <mxRectangle width="30" height="30" as="alternateBounds" />
          </mxGeometry>
        </mxCell>
        <mxCell id="NYE9seQgFOBxGJMTWFas-298" value="id" style="shape=partialRectangle;connectable=0;fillColor=none;top=0;left=0;bottom=0;right=0;align=left;spacingLeft=6;fontStyle=5;overflow=hidden;rounded=0;labelBackgroundColor=none;" parent="NYE9seQgFOBxGJMTWFas-296" vertex="1">
          <mxGeometry x="30" width="150" height="30" as="geometry">
            <mxRectangle width="150" height="30" as="alternateBounds" />
          </mxGeometry>
        </mxCell>
        <mxCell id="NYE9seQgFOBxGJMTWFas-315" value="" style="shape=tableRow;horizontal=0;startSize=0;swimlaneHead=0;swimlaneBody=0;fillColor=none;collapsible=0;dropTarget=0;points=[[0,0.5],[1,0.5]];portConstraint=eastwest;top=0;left=0;right=0;bottom=0;rounded=0;labelBackgroundColor=none;" parent="NYE9seQgFOBxGJMTWFas-295" vertex="1">
          <mxGeometry y="60" width="180" height="30" as="geometry" />
        </mxCell>
        <mxCell id="NYE9seQgFOBxGJMTWFas-316" value="" style="shape=partialRectangle;connectable=0;fillColor=none;top=0;left=0;bottom=0;right=0;editable=1;overflow=hidden;rounded=0;labelBackgroundColor=none;" parent="NYE9seQgFOBxGJMTWFas-315" vertex="1">
          <mxGeometry width="30" height="30" as="geometry">
            <mxRectangle width="30" height="30" as="alternateBounds" />
          </mxGeometry>
        </mxCell>
        <mxCell id="NYE9seQgFOBxGJMTWFas-317" value="birthday" style="shape=partialRectangle;connectable=0;fillColor=none;top=0;left=0;bottom=0;right=0;align=left;spacingLeft=6;overflow=hidden;rounded=0;labelBackgroundColor=none;" parent="NYE9seQgFOBxGJMTWFas-315" vertex="1">
          <mxGeometry x="30" width="150" height="30" as="geometry">
            <mxRectangle width="150" height="30" as="alternateBounds" />
          </mxGeometry>
        </mxCell>
        <mxCell id="NYE9seQgFOBxGJMTWFas-286" value="" style="shape=tableRow;horizontal=0;startSize=0;swimlaneHead=0;swimlaneBody=0;fillColor=none;collapsible=0;dropTarget=0;points=[[0,0.5],[1,0.5]];portConstraint=eastwest;top=0;left=0;right=0;bottom=0;rounded=0;labelBackgroundColor=none;" parent="NYE9seQgFOBxGJMTWFas-295" vertex="1">
          <mxGeometry y="90" width="180" height="30" as="geometry" />
        </mxCell>
        <mxCell id="NYE9seQgFOBxGJMTWFas-287" value="" style="shape=partialRectangle;connectable=0;fillColor=none;top=0;left=0;bottom=0;right=0;editable=1;overflow=hidden;rounded=0;labelBackgroundColor=none;" parent="NYE9seQgFOBxGJMTWFas-286" vertex="1">
          <mxGeometry width="30" height="30" as="geometry">
            <mxRectangle width="30" height="30" as="alternateBounds" />
          </mxGeometry>
        </mxCell>
        <mxCell id="NYE9seQgFOBxGJMTWFas-288" value="name" style="shape=partialRectangle;connectable=0;fillColor=none;top=0;left=0;bottom=0;right=0;align=left;spacingLeft=6;overflow=hidden;rounded=0;labelBackgroundColor=none;" parent="NYE9seQgFOBxGJMTWFas-286" vertex="1">
          <mxGeometry x="30" width="150" height="30" as="geometry">
            <mxRectangle width="150" height="30" as="alternateBounds" />
          </mxGeometry>
        </mxCell>
        <mxCell id="NYE9seQgFOBxGJMTWFas-289" value="" style="shape=tableRow;horizontal=0;startSize=0;swimlaneHead=0;swimlaneBody=0;fillColor=none;collapsible=0;dropTarget=0;points=[[0,0.5],[1,0.5]];portConstraint=eastwest;top=0;left=0;right=0;bottom=0;rounded=0;labelBackgroundColor=none;" parent="NYE9seQgFOBxGJMTWFas-295" vertex="1">
          <mxGeometry y="120" width="180" height="30" as="geometry" />
        </mxCell>
        <mxCell id="NYE9seQgFOBxGJMTWFas-290" value="" style="shape=partialRectangle;connectable=0;fillColor=none;top=0;left=0;bottom=0;right=0;editable=1;overflow=hidden;rounded=0;labelBackgroundColor=none;" parent="NYE9seQgFOBxGJMTWFas-289" vertex="1">
          <mxGeometry width="30" height="30" as="geometry">
            <mxRectangle width="30" height="30" as="alternateBounds" />
          </mxGeometry>
        </mxCell>
        <mxCell id="NYE9seQgFOBxGJMTWFas-291" value="surname" style="shape=partialRectangle;connectable=0;fillColor=none;top=0;left=0;bottom=0;right=0;align=left;spacingLeft=6;overflow=hidden;rounded=0;labelBackgroundColor=none;" parent="NYE9seQgFOBxGJMTWFas-289" vertex="1">
          <mxGeometry x="30" width="150" height="30" as="geometry">
            <mxRectangle width="150" height="30" as="alternateBounds" />
          </mxGeometry>
        </mxCell>
        <mxCell id="xnJxR2Mf4vkhum-jP50F-97" value="" style="shape=tableRow;horizontal=0;startSize=0;swimlaneHead=0;swimlaneBody=0;fillColor=none;collapsible=0;dropTarget=0;points=[[0,0.5],[1,0.5]];portConstraint=eastwest;top=0;left=0;right=0;bottom=0;rounded=0;labelBackgroundColor=none;" parent="NYE9seQgFOBxGJMTWFas-295" vertex="1">
          <mxGeometry y="150" width="180" height="30" as="geometry" />
        </mxCell>
        <mxCell id="xnJxR2Mf4vkhum-jP50F-98" value="FK" style="shape=partialRectangle;connectable=0;fillColor=none;top=0;left=0;bottom=0;right=0;fontStyle=0;overflow=hidden;rounded=0;labelBackgroundColor=none;" parent="xnJxR2Mf4vkhum-jP50F-97" vertex="1">
          <mxGeometry width="30" height="30" as="geometry">
            <mxRectangle width="30" height="30" as="alternateBounds" />
          </mxGeometry>
        </mxCell>
        <mxCell id="xnJxR2Mf4vkhum-jP50F-99" value="id_school" style="shape=partialRectangle;connectable=0;fillColor=none;top=0;left=0;bottom=0;right=0;align=left;spacingLeft=6;fontStyle=0;overflow=hidden;rounded=0;labelBackgroundColor=none;" parent="xnJxR2Mf4vkhum-jP50F-97" vertex="1">
          <mxGeometry x="30" width="150" height="30" as="geometry">
            <mxRectangle width="150" height="30" as="alternateBounds" />
          </mxGeometry>
        </mxCell>
        <mxCell id="ukUbYiSmoDlcyn74dR4l-1" value="" style="shape=tableRow;horizontal=0;startSize=0;swimlaneHead=0;swimlaneBody=0;fillColor=none;collapsible=0;dropTarget=0;points=[[0,0.5],[1,0.5]];portConstraint=eastwest;top=0;left=0;right=0;bottom=0;" parent="NYE9seQgFOBxGJMTWFas-295" vertex="1">
          <mxGeometry y="180" width="180" height="30" as="geometry" />
        </mxCell>
        <mxCell id="ukUbYiSmoDlcyn74dR4l-2" value="" style="shape=partialRectangle;connectable=0;fillColor=none;top=0;left=0;bottom=0;right=0;fontStyle=0;overflow=hidden;" parent="ukUbYiSmoDlcyn74dR4l-1" vertex="1">
          <mxGeometry width="30" height="30" as="geometry">
            <mxRectangle width="30" height="30" as="alternateBounds" />
          </mxGeometry>
        </mxCell>
        <mxCell id="ukUbYiSmoDlcyn74dR4l-3" value="avatar_path" style="shape=partialRectangle;connectable=0;fillColor=none;top=0;left=0;bottom=0;right=0;align=left;spacingLeft=6;fontStyle=0;overflow=hidden;" parent="ukUbYiSmoDlcyn74dR4l-1" vertex="1">
          <mxGeometry x="30" width="150" height="30" as="geometry">
            <mxRectangle width="150" height="30" as="alternateBounds" />
          </mxGeometry>
        </mxCell>
        <mxCell id="xnJxR2Mf4vkhum-jP50F-45" value="users_classes" style="shape=table;startSize=30;container=1;collapsible=1;childLayout=tableLayout;fixedRows=1;rowLines=0;fontStyle=1;align=center;resizeLast=1;rounded=0;labelBackgroundColor=none;" parent="1" vertex="1">
          <mxGeometry x="680" y="106" width="180" height="90" as="geometry" />
        </mxCell>
        <mxCell id="xnJxR2Mf4vkhum-jP50F-58" value="" style="shape=tableRow;horizontal=0;startSize=0;swimlaneHead=0;swimlaneBody=0;fillColor=none;collapsible=0;dropTarget=0;points=[[0,0.5],[1,0.5]];portConstraint=eastwest;top=0;left=0;right=0;bottom=0;rounded=0;labelBackgroundColor=none;" parent="xnJxR2Mf4vkhum-jP50F-45" vertex="1">
          <mxGeometry y="30" width="180" height="30" as="geometry" />
        </mxCell>
        <mxCell id="xnJxR2Mf4vkhum-jP50F-59" value="FK" style="shape=partialRectangle;connectable=0;fillColor=none;top=0;left=0;bottom=0;right=0;fontStyle=0;overflow=hidden;rounded=0;labelBackgroundColor=none;" parent="xnJxR2Mf4vkhum-jP50F-58" vertex="1">
          <mxGeometry width="30" height="30" as="geometry">
            <mxRectangle width="30" height="30" as="alternateBounds" />
          </mxGeometry>
        </mxCell>
        <mxCell id="xnJxR2Mf4vkhum-jP50F-60" value="id_user" style="shape=partialRectangle;connectable=0;fillColor=none;top=0;left=0;bottom=0;right=0;align=left;spacingLeft=6;fontStyle=0;overflow=hidden;rounded=0;labelBackgroundColor=none;" parent="xnJxR2Mf4vkhum-jP50F-58" vertex="1">
          <mxGeometry x="30" width="150" height="30" as="geometry">
            <mxRectangle width="150" height="30" as="alternateBounds" />
          </mxGeometry>
        </mxCell>
        <mxCell id="xnJxR2Mf4vkhum-jP50F-61" value="" style="shape=tableRow;horizontal=0;startSize=0;swimlaneHead=0;swimlaneBody=0;fillColor=none;collapsible=0;dropTarget=0;points=[[0,0.5],[1,0.5]];portConstraint=eastwest;top=0;left=0;right=0;bottom=0;rounded=0;labelBackgroundColor=none;" parent="xnJxR2Mf4vkhum-jP50F-45" vertex="1">
          <mxGeometry y="60" width="180" height="30" as="geometry" />
        </mxCell>
        <mxCell id="xnJxR2Mf4vkhum-jP50F-62" value="FK" style="shape=partialRectangle;connectable=0;fillColor=none;top=0;left=0;bottom=0;right=0;fontStyle=0;overflow=hidden;rounded=0;labelBackgroundColor=none;" parent="xnJxR2Mf4vkhum-jP50F-61" vertex="1">
          <mxGeometry width="30" height="30" as="geometry">
            <mxRectangle width="30" height="30" as="alternateBounds" />
          </mxGeometry>
        </mxCell>
        <mxCell id="xnJxR2Mf4vkhum-jP50F-63" value="id_class" style="shape=partialRectangle;connectable=0;fillColor=none;top=0;left=0;bottom=0;right=0;align=left;spacingLeft=6;fontStyle=0;overflow=hidden;rounded=0;labelBackgroundColor=none;" parent="xnJxR2Mf4vkhum-jP50F-61" vertex="1">
          <mxGeometry x="30" width="150" height="30" as="geometry">
            <mxRectangle width="150" height="30" as="alternateBounds" />
          </mxGeometry>
        </mxCell>
        <mxCell id="xnJxR2Mf4vkhum-jP50F-67" value="" style="edgeStyle=entityRelationEdgeStyle;fontSize=12;html=1;endArrow=ERoneToMany;startArrow=ERoneToMany;rounded=0;exitX=1;exitY=0.5;exitDx=0;exitDy=0;entryX=1;entryY=0.118;entryDx=0;entryDy=0;labelBackgroundColor=none;fontColor=default;entryPerimeter=0;" parent="1" source="xnJxR2Mf4vkhum-jP50F-58" target="NYE9seQgFOBxGJMTWFas-283" edge="1">
          <mxGeometry width="100" height="100" relative="1" as="geometry">
            <mxPoint x="710" y="561" as="sourcePoint" />
            <mxPoint x="647" y="426" as="targetPoint" />
          </mxGeometry>
        </mxCell>
        <mxCell id="xnJxR2Mf4vkhum-jP50F-68" value="" style="edgeStyle=entityRelationEdgeStyle;fontSize=12;html=1;endArrow=ERoneToMany;startArrow=ERoneToMany;rounded=0;exitX=1;exitY=0.25;exitDx=0;exitDy=0;labelBackgroundColor=none;fontColor=default;jumpStyle=sharp;entryX=0;entryY=0.5;entryDx=0;entryDy=0;" parent="1" source="NYE9seQgFOBxGJMTWFas-29" target="xnJxR2Mf4vkhum-jP50F-61" edge="1">
          <mxGeometry width="100" height="100" relative="1" as="geometry">
            <mxPoint x="610" y="538" as="sourcePoint" />
            <mxPoint x="670" y="181" as="targetPoint" />
          </mxGeometry>
        </mxCell>
        <mxCell id="xnJxR2Mf4vkhum-jP50F-69" value="" style="edgeStyle=entityRelationEdgeStyle;fontSize=12;html=1;endArrow=ERoneToMany;rounded=0;entryX=1;entryY=0.5;entryDx=0;entryDy=0;exitX=1;exitY=0.5;exitDx=0;exitDy=0;labelBackgroundColor=none;fontColor=default;" parent="1" source="NYE9seQgFOBxGJMTWFas-348" target="NYE9seQgFOBxGJMTWFas-266" edge="1">
          <mxGeometry width="100" height="100" relative="1" as="geometry">
            <mxPoint x="820" y="471" as="sourcePoint" />
            <mxPoint x="850" y="106" as="targetPoint" />
          </mxGeometry>
        </mxCell>
        <mxCell id="xnJxR2Mf4vkhum-jP50F-70" value="" style="edgeStyle=entityRelationEdgeStyle;fontSize=12;html=1;endArrow=ERmandOne;startArrow=ERmandOne;rounded=0;entryX=0;entryY=0.5;entryDx=0;entryDy=0;exitX=1;exitY=0.5;exitDx=0;exitDy=0;labelBackgroundColor=none;fontColor=default;" parent="1" source="NYE9seQgFOBxGJMTWFas-318" target="NYE9seQgFOBxGJMTWFas-296" edge="1">
          <mxGeometry width="100" height="100" relative="1" as="geometry">
            <mxPoint x="720" y="361" as="sourcePoint" />
            <mxPoint x="820" y="261" as="targetPoint" />
          </mxGeometry>
        </mxCell>
        <mxCell id="xnJxR2Mf4vkhum-jP50F-71" value="" style="edgeStyle=entityRelationEdgeStyle;fontSize=12;html=1;endArrow=ERzeroToOne;endFill=1;rounded=0;exitX=1;exitY=0.5;exitDx=0;exitDy=0;labelBackgroundColor=none;fontColor=default;entryX=-0.001;entryY=0.478;entryDx=0;entryDy=0;entryPerimeter=0;jumpStyle=sharp;" parent="1" source="NYE9seQgFOBxGJMTWFas-81" target="NYE9seQgFOBxGJMTWFas-283" edge="1">
          <mxGeometry width="100" height="100" relative="1" as="geometry">
            <mxPoint x="590" y="591" as="sourcePoint" />
            <mxPoint x="640" y="321" as="targetPoint" />
          </mxGeometry>
        </mxCell>
        <mxCell id="xnJxR2Mf4vkhum-jP50F-101" value="" style="edgeStyle=entityRelationEdgeStyle;fontSize=12;html=1;endArrow=ERoneToMany;rounded=0;exitX=0;exitY=0.5;exitDx=0;exitDy=0;entryX=1;entryY=0.5;entryDx=0;entryDy=0;labelBackgroundColor=none;fontColor=default;" parent="1" source="xnJxR2Mf4vkhum-jP50F-97" target="NYE9seQgFOBxGJMTWFas-94" edge="1">
          <mxGeometry width="100" height="100" relative="1" as="geometry">
            <mxPoint x="770" y="791" as="sourcePoint" />
            <mxPoint x="870" y="691" as="targetPoint" />
          </mxGeometry>
        </mxCell>
        <mxCell id="xnJxR2Mf4vkhum-jP50F-104" value="" style="edgeStyle=entityRelationEdgeStyle;fontSize=12;html=1;endArrow=ERzeroToOne;endFill=1;rounded=0;exitX=1;exitY=0.5;exitDx=0;exitDy=0;entryX=0;entryY=0.922;entryDx=0;entryDy=0;entryPerimeter=0;labelBackgroundColor=none;fontColor=default;jumpStyle=sharp;" parent="1" source="xnJxR2Mf4vkhum-jP50F-24" target="NYE9seQgFOBxGJMTWFas-283" edge="1">
          <mxGeometry width="100" height="100" relative="1" as="geometry">
            <mxPoint x="610" y="711" as="sourcePoint" />
            <mxPoint x="671" y="313" as="targetPoint" />
          </mxGeometry>
        </mxCell>
        <mxCell id="xnJxR2Mf4vkhum-jP50F-105" value="" style="edgeStyle=entityRelationEdgeStyle;fontSize=12;html=1;endArrow=ERoneToMany;rounded=0;exitX=1;exitY=0.5;exitDx=0;exitDy=0;entryX=1;entryY=0.706;entryDx=0;entryDy=0;labelBackgroundColor=none;fontColor=default;entryPerimeter=0;jumpStyle=sharp;endSize=6;targetPerimeterSpacing=0;jumpSize=6;" parent="1" source="NYE9seQgFOBxGJMTWFas-329" target="NYE9seQgFOBxGJMTWFas-30" edge="1">
          <mxGeometry width="100" height="100" relative="1" as="geometry">
            <mxPoint x="700" y="851" as="sourcePoint" />
            <mxPoint x="600" y="551" as="targetPoint" />
          </mxGeometry>
        </mxCell>
        <mxCell id="xnJxR2Mf4vkhum-jP50F-109" value="" style="edgeStyle=entityRelationEdgeStyle;fontSize=12;html=1;endArrow=ERoneToMany;rounded=0;entryX=0.005;entryY=0.711;entryDx=0;entryDy=0;exitX=1;exitY=0.5;exitDx=0;exitDy=0;labelBackgroundColor=none;fontColor=default;entryPerimeter=0;" parent="1" source="NYE9seQgFOBxGJMTWFas-326" target="NYE9seQgFOBxGJMTWFas-115" edge="1">
          <mxGeometry width="100" height="100" relative="1" as="geometry">
            <mxPoint x="540" y="631" as="sourcePoint" />
            <mxPoint x="640" y="531" as="targetPoint" />
          </mxGeometry>
        </mxCell>
        <mxCell id="xnJxR2Mf4vkhum-jP50F-110" value="" style="edgeStyle=entityRelationEdgeStyle;fontSize=12;html=1;endArrow=ERzeroToMany;endFill=1;rounded=0;exitX=1;exitY=0.5;exitDx=0;exitDy=0;entryX=-0.001;entryY=0.251;entryDx=0;entryDy=0;entryPerimeter=0;labelBackgroundColor=none;fontColor=default;jumpStyle=sharp;" parent="1" source="NYE9seQgFOBxGJMTWFas-71" target="NYE9seQgFOBxGJMTWFas-283" edge="1">
          <mxGeometry width="100" height="100" relative="1" as="geometry">
            <mxPoint x="540" y="931" as="sourcePoint" />
            <mxPoint x="650" y="281" as="targetPoint" />
          </mxGeometry>
        </mxCell>
        <mxCell id="1BFZD8_NQaoCYZB0v_Hj-4" value="" style="edgeStyle=entityRelationEdgeStyle;fontSize=12;html=1;endArrow=ERoneToMany;rounded=0;exitX=1;exitY=0.75;exitDx=0;exitDy=0;entryX=0;entryY=0.5;entryDx=0;entryDy=0;jumpStyle=sharp;" parent="1" source="NYE9seQgFOBxGJMTWFas-29" target="NYE9seQgFOBxGJMTWFas-94" edge="1">
          <mxGeometry width="100" height="100" relative="1" as="geometry">
            <mxPoint x="680" y="461" as="sourcePoint" />
            <mxPoint x="780" y="361" as="targetPoint" />
          </mxGeometry>
        </mxCell>
        <mxCell id="Jf4wSTpuIDaIOqpDxfzK-1" value="&amp;nbsp;" style="text;whiteSpace=wrap;html=1;" parent="1" vertex="1">
          <mxGeometry x="470" y="221" width="40" height="40" as="geometry" />
        </mxCell>
      </root>
    </mxGraphModel>
  </diagram>
</mxfile>
